<?xml version="1.0" encoding="UTF-8"?>
<!-- Generator: Blender, SVG Export for Grease Pencil - v1.0 -->
<!DOCTYPE svg PUBLIC "-//W3C//DTD SVG 1.1//EN" "http://www.w3.org/Graphics/SVG/1.1/DTD/svg11.dtd">
<svg version="1.0" x="0px" y="0px" xmlns="http://www.w3.org/2000/svg" width="550px" height="439px" viewBox="0 0 550 439">
	<g id="blender_frame_1">
		<g id="blender_object_cube.svg">
			<!--Layer: blender_frame_1-->
			<g id="blender_frame_1">
				<polygon fill="#00FDF4" stroke="none" fill-opacity="1" points="512.710022,85.937775 513.474915,85.869598 514.239746,85.801392 515.004456,85.733185 515.769348,85.665009 516.534241,85.596832 517.298950,85.528656 518.063904,85.460449 518.828613,85.392273 519.593506,85.324066 520.099060,84.951538 520.604736,84.579010 521.110168,84.206451 521.615784,83.833923 521.570923,83.371674 521.273193,83.095703 520.975342,82.819672 520.677734,82.543732 520.380005,82.267731 520.082214,81.991730 519.784546,81.715759 519.486816,81.439789 519.189026,81.163757 518.386169,80.840118 517.583252,80.516449 516.780273,80.192719 515.977478,79.869080 515.174500,79.545410 514.371582,79.221710 513.568787,78.898041 512.765747,78.574371 511.962891,78.250671 491.174988,71.500671 470.387085,64.750610 449.599121,58.000580 428.811279,51.250549 408.023438,44.500488 387.235535,37.750488 366.447632,31.000458 345.659668,24.250427 324.871826,17.500366 323.685913,17.178284 322.500061,16.856140 321.314209,16.534058 320.128418,16.211914 318.942444,15.889893 317.756592,15.567810 316.570740,15.245667 315.384827,14.923584 314.198975,14.601501 312.810669,14.330017 311.422363,14.058533 310.033997,13.787048 308.645813,13.515503 307.257446,13.244019 305.869202,12.972595 304.480896,12.701111 303.092651,12.429565 301.704285,12.158081 300.324951,11.978516 298.945557,11.799011 297.566223,11.619507 296.186890,11.439941 294.807495,11.260437 293.428162,11.080872 292.048767,10.901367 290.669373,10.721863 289.290039,10.542297 288.129639,10.482056 286.969238,10.421753 285.808716,10.361511 284.648376,10.301270 283.487976,10.240967 282.327515,10.180725 281.167114,10.120483 280.006592,10.060181 278.846252,10.000000 258.722412,10.083008 238.598679,10.165955 218.474930,10.248901 198.351212,10.331909 178.227432,10.414917 158.103683,10.497864 137.979904,10.580872 117.856155,10.663879 97.732407,10.746887 96.967606,10.815063 96.202744,10.883240 95.437912,10.951416 94.673080,11.019653 93.908279,11.087830 93.143448,11.156067 92.378616,11.224243 91.613815,11.292419 90.848953,11.360657 90.343338,11.733215 89.837753,12.105713 89.332169,12.478271 88.826553,12.850769 88.871475,13.313049 89.169205,13.589050 89.466965,13.865051 89.764694,14.140991 90.062424,14.416992 90.360092,14.692993 90.657822,14.968933 90.955551,15.244934 91.253281,15.520935 92.056229,15.844604 92.859146,16.168274 93.662033,16.491943 94.464981,16.815674 95.267929,17.139282 96.070877,17.462952 96.873764,17.786682 97.676682,18.110352 98.479630,18.434021 119.267532,25.184082 140.055344,31.934052 160.843246,38.684113 181.631149,45.434143 202.418961,52.184143 223.206894,58.934174 243.994766,65.684204 264.782593,72.434204 285.570496,79.184235 286.756409,79.506317 287.942322,79.828430 289.128174,80.150543 290.314087,80.472626 291.499939,80.794739 292.685730,81.116821 293.871582,81.438934 295.057495,81.761047 296.243347,82.083130 297.631714,82.354614 299.019958,82.626129 300.408264,82.897583 301.796631,83.169098 303.184875,83.440582 304.573242,83.712036 305.961548,83.983521 307.349854,84.255035 308.738098,84.526520 310.117432,84.706024 311.496826,84.885590 312.876160,85.065125 314.255554,85.244690 315.634888,85.424194 317.014282,85.603760 318.393616,85.783264 319.772949,85.962830 321.152344,86.142365 322.312744,86.202637 323.473206,86.262909 324.633545,86.323151 325.794128,86.383423 326.954407,86.443695 328.114929,86.503906 329.275269,86.564178 330.435791,86.624451 331.596130,86.684692 351.719971,86.601715 371.843689,86.518707 391.967468,86.435699 412.091248,86.352722 432.214966,86.269714 452.338684,86.186768 472.462463,86.103760 492.586304,86.020752 512.710022,85.937775" />
				<polygon fill="#00FDF4" stroke="none" fill-opacity="1" points="468.033752,429.190674 469.042542,428.915039 470.051392,428.639404 471.060181,428.363770 472.069092,428.088135 473.077881,427.812439 474.086731,427.536865 475.095581,427.261230 476.104431,426.985657 477.113281,426.710022 478.060974,425.932983 479.008606,425.156067 479.956177,424.378967 480.903992,423.602112 481.851562,422.825073 482.799194,422.048096 483.746948,421.271179 484.694519,420.494141 485.642151,419.717163 486.384399,418.557129 487.126709,417.397095 487.868896,416.237061 488.611206,415.077026 489.353394,413.916992 490.095581,412.756897 490.837769,411.596863 491.580017,410.436768 492.322266,409.276733 492.746094,407.910278 493.169861,406.543762 493.593628,405.177246 494.017395,403.810791 494.441162,402.444275 494.864990,401.077820 495.288757,399.711304 495.712585,398.344788 496.136353,396.978271 500.992676,368.428101 505.848938,339.877808 510.705261,311.327576 515.561584,282.777344 520.417847,254.227081 525.274170,225.676880 530.130432,197.126617 534.986816,168.576385 539.843079,140.026123 539.883911,138.661224 539.924744,137.296295 539.965515,135.931366 540.006409,134.566437 540.047180,133.201569 540.088013,131.836639 540.128906,130.471710 540.169678,129.106781 540.210449,127.741852 539.862244,126.586304 539.513794,125.430756 539.165405,124.275238 538.817139,123.119690 538.468750,121.964111 538.120422,120.808563 537.772156,119.653015 537.423767,118.497467 537.075439,117.341919 536.391052,116.571655 535.706421,115.801361 535.021851,115.031128 534.337524,114.260895 533.653015,113.490692 532.968384,112.720398 532.283997,111.950195 531.599548,111.179901 530.915100,110.409668 529.998718,110.141968 529.082275,109.874298 528.165771,109.606598 527.249451,109.338928 526.332947,109.071228 525.416504,108.803558 524.500122,108.535828 523.583679,108.268188 522.667297,108.000519 502.543579,108.083466 482.419739,108.166443 462.295959,108.249420 442.172241,108.332458 422.048401,108.415436 401.924622,108.498383 381.800842,108.581390 361.677063,108.664398 341.553345,108.747375 340.544495,109.022980 339.535645,109.298645 338.526794,109.574249 337.518066,109.849854 336.509216,110.125488 335.500366,110.401123 334.491516,110.676788 333.482727,110.952393 332.473877,111.228027 331.526245,112.004974 330.578613,112.781952 329.630859,113.558960 328.683289,114.335938 327.735535,115.112915 326.787842,115.889893 325.840210,116.666870 324.892639,117.443848 323.944946,118.220856 323.202759,119.380890 322.460449,120.540924 321.718140,121.700958 320.976013,122.861053 320.233765,124.021057 319.491577,125.181091 318.749329,126.341187 318.007080,127.501221 317.264893,128.661255 316.841125,130.027771 316.417297,131.394287 315.993530,132.760742 315.569824,134.127258 315.145996,135.493774 314.722229,136.860229 314.298401,138.226746 313.874634,139.593262 313.450928,140.959717 308.594543,169.509979 303.738281,198.060211 298.881897,226.610443 294.025635,255.160706 289.169312,283.710907 284.312988,312.261230 279.456665,340.811462 274.600342,369.361664 269.743958,397.911926 269.703247,399.276855 269.662354,400.641785 269.621521,402.006653 269.580688,403.371582 269.539856,404.736511 269.499023,406.101440 269.458191,407.466309 269.417358,408.831299 269.376526,410.196167 269.724915,411.351746 270.073242,412.507324 270.421570,413.662842 270.770020,414.818420 271.118286,415.973938 271.466675,417.129456 271.815002,418.285034 272.163391,419.440552 272.511719,420.596130 273.196228,421.366333 273.880737,422.136658 274.565125,422.906799 275.249695,423.677185 275.934143,424.447449 276.618652,425.217651 277.303162,425.987854 277.987671,426.758118 278.672180,427.528381 279.588562,427.796082 280.505005,428.063782 281.421387,428.331360 282.337830,428.599121 283.254211,428.866760 284.170654,429.134460 285.087097,429.402161 286.003479,429.669861 286.919861,429.937500 307.043701,429.854553 327.167480,429.771606 347.291138,429.688538 367.414978,429.605591 387.538696,429.522583 407.662537,429.439697 427.786194,429.356628 447.909912,429.273621 468.033752,429.190674" />
				<polygon fill="#00FDF4" stroke="none" fill-opacity="1" points="215.324478,418.270264 216.365158,418.321533 217.405685,418.372681 218.446304,418.423889 219.486954,418.475220 220.527512,418.526367 221.568130,418.577576 222.608719,418.628906 223.649338,418.680054 224.689926,418.731323 225.664536,418.231506 226.639114,417.731506 227.613724,417.231628 228.588364,416.731812 229.562912,416.231873 230.537521,415.731995 231.512131,415.232178 232.486710,414.732300 233.461319,414.232422 234.221573,413.257507 234.981796,412.282593 235.741959,411.307678 236.502243,410.332825 237.262466,409.357910 238.022690,408.383057 238.782913,407.408142 239.543137,406.433228 240.303391,405.458313 240.733444,404.156860 241.163528,402.855347 241.593613,401.553833 242.023758,400.252441 242.453873,398.950928 242.883926,397.649414 243.314011,396.347961 243.744125,395.046448 244.174179,393.744995 249.030502,365.194824 253.886856,336.644531 258.743103,308.094238 263.599487,279.544067 268.455750,250.993774 273.312073,222.443512 278.168396,193.893280 283.024719,165.343048 287.880981,136.792816 287.915527,135.362885 287.950073,133.932953 287.984497,132.503021 288.019043,131.073120 288.053589,129.643127 288.088074,128.213196 288.122559,126.783264 288.157043,125.353302 288.191589,123.923370 287.825195,122.582672 287.458923,121.242004 287.092529,119.901276 286.726196,118.560577 286.359863,117.219879 285.993530,115.879181 285.627197,114.538513 285.260803,113.197815 284.894470,111.857086 284.183044,110.809753 283.471619,109.762390 282.760193,108.715057 282.048828,107.667694 281.337341,106.620392 280.625977,105.572998 279.914551,104.525696 279.203125,103.478333 278.491699,102.431000 277.543457,101.836456 276.595276,101.241943 275.647095,100.647339 274.698914,100.052826 273.750732,99.458252 272.802551,98.863678 271.854370,98.269135 270.906189,97.674622 269.957947,97.080078 249.170120,90.330048 228.382217,83.579987 207.594284,76.829987 186.806473,70.079956 166.018570,63.329895 145.230667,56.579895 124.442795,49.829865 103.654892,43.079803 82.866989,36.329834 81.826431,36.278595 80.785812,36.227356 79.745224,36.176086 78.704636,36.124847 77.663986,36.073639 76.623367,36.022400 75.582748,35.971161 74.542191,35.919922 73.501602,35.868652 72.527023,36.368561 71.552353,36.868469 70.577774,37.368317 69.603195,37.868225 68.628586,38.368134 67.653976,38.867981 66.679398,39.367889 65.704758,39.867798 64.730179,40.367615 63.969955,41.342560 63.209763,42.317444 62.449509,43.292358 61.689316,44.267242 60.929092,45.242126 60.168869,46.217010 59.408615,47.191925 58.648453,48.166840 57.888229,49.141724 57.458084,50.443207 57.028000,51.744690 56.597946,53.046173 56.167831,54.347626 55.737717,55.649078 55.307602,56.950623 54.877487,58.252075 54.447403,59.553558 54.017319,60.855072 49.160995,89.405304 44.304672,117.955536 39.448349,146.505768 34.592087,175.055969 29.735764,203.606201 24.879440,232.156464 20.023132,260.706726 15.166824,289.256958 10.310501,317.807190 10.275970,319.237122 10.241501,320.667084 10.206985,322.096954 10.172516,323.526978 10.137985,324.956909 10.103516,326.386810 10.068985,327.816772 10.034470,329.246704 10.000000,330.676666 10.366348,332.017395 10.732651,333.358093 11.098999,334.698730 11.465347,336.039490 11.831711,337.380127 12.198059,338.720825 12.564407,340.061584 12.930710,341.402283 13.297058,342.742950 14.008499,343.790314 14.719894,344.837585 15.431335,345.884949 16.142746,346.932312 16.854172,347.979706 17.565582,349.026978 18.276993,350.074402 18.988434,351.121704 19.699829,352.169037 20.648041,352.763550 21.596222,353.358154 22.544418,353.952637 23.492599,354.547302 24.440781,355.141785 25.388962,355.736328 26.337143,356.330933 27.285324,356.925415 28.233536,357.519989 49.021439,364.270020 69.809341,371.020081 90.597183,377.770020 111.385086,384.520142 132.172989,391.270081 152.960831,398.020142 173.748703,404.770203 194.536606,411.520142 215.324478,418.270264" />
			</g>
		</g>
	</g>
</svg>
