<?xml version="1.0" encoding="UTF-8"?>
<!-- Generator: Blender, SVG Export for Grease Pencil - v1.0 -->
<!DOCTYPE svg PUBLIC "-//W3C//DTD SVG 1.1//EN" "http://www.w3.org/Graphics/SVG/1.1/DTD/svg11.dtd">
<svg version="1.0" x="0px" y="0px" xmlns="http://www.w3.org/2000/svg" width="929px" height="815px" viewBox="0 0 929 815">
	<g id="blender_frame_1">
		<g id="blender_object_GPencil">
			<!--Layer: blender_frame_1_Fills-->
			<g id="blender_frame_1_Fills">
				<polygon fill="#59FECE" stroke="none" fill-opacity="1" points="485.915771,800.608398 443.699341,716.895264 441.677368,697.587402 522.370728,392.291199 537.351196,366.044128 623.973145,278.281616 641.437134,272.295288 858.183838,263.433228 874.462158,271.342407 919.722168,361.090332 835.032471,681.504395 825.086304,698.931152 734.773071,790.433594 717.309326,796.419800 500.562378,805.281860" />
				<polygon fill="#59FECE" stroke="none" fill-opacity="1" points="859.735107,178.144165 848.342407,169.498413 620.932495,46.677490 479.353882,11.463989 459.447021,10.000000 242.700317,18.861938 230.496582,21.638794 227.577515,62.760620 238.970337,71.406372 446.959351,185.909546 466.379883,194.227173 607.958496,229.440796 627.865356,230.904907 844.612061,222.042847 856.815918,219.265991" />
				<polygon fill="#59FECE" stroke="none" fill-opacity="1" points="10.000000,486.998169 53.972168,621.103516 67.970093,634.915039 275.959229,749.418091 292.774658,752.570068 387.461792,694.800293 396.948364,675.601196 473.020752,387.788391 474.804199,364.348450 430.832031,230.243164 416.834106,216.431641 208.844849,101.928467 192.029419,98.776733 97.342285,156.546509 87.855713,175.745605 11.783325,463.558228" />
			</g>
		</g>
	</g>
</svg>
