<?xml version="1.0" encoding="UTF-8"?>
<!-- Generator: Blender, SVG Export for Grease Pencil - v1.0 -->
<!DOCTYPE svg PUBLIC "-//W3C//DTD SVG 1.1//EN" "http://www.w3.org/Graphics/SVG/1.1/DTD/svg11.dtd">
<svg version="1.0" x="0px" y="0px" xmlns="http://www.w3.org/2000/svg" width="517px" height="345px" viewBox="0 0 517 345">
	<g id="blender_frame_1">
		<g id="blender_object_dice">
			<!--Layer: Cube_001_Fills-->
			<g id="Cube_001_Fills">
				<polygon fill="#59FECE" stroke="none" fill-opacity="1" points="353.508148,75.353973 358.176300,78.896545 356.980194,95.746094 351.979706,96.883881 263.168427,100.515076 241.512238,69.126160 241.129852,66.213135 237.993134,63.004028 232.579498,59.987579 225.713165,57.622894 218.439606,56.269897 211.865875,56.134766 206.993011,57.237915 204.562775,59.411438 99.151703,31.618500 100.347839,14.768951 105.348236,13.631165 194.159515,10.000000 214.195404,35.486115 214.577728,38.399170 217.714447,41.608215 223.128082,44.624664 229.994415,46.989380 237.268036,48.342346 243.841644,48.477539 248.714508,47.374329 251.144806,45.200806 268.285187,28.436676" />
				<polygon fill="#59FECE" stroke="none" fill-opacity="1" points="221.579620,160.448090 185.791382,295.849609 205.005035,333.949280 211.006378,335.864197 299.817719,332.233032 306.973541,329.780151 346.967438,289.259644 307.502411,234.638306 303.579681,240.985229 297.965118,245.579132 291.513641,247.720581 285.207367,247.083588 280.006317,243.765106 276.702301,238.270386 275.798370,231.435883 277.432159,224.302185" />
				<polygon fill="#59FECE" stroke="none" fill-opacity="1" points="10.730713,195.844055 10.000000,205.448486 28.017487,260.397705 33.753052,266.056946 118.975983,312.974243 125.866028,314.265686 164.663788,290.594696 168.550903,282.727966 139.867584,217.877808 135.916595,223.239929 130.296844,226.268433 123.863983,226.502319 117.597351,223.905975 112.450928,218.874603 109.208221,212.174255 108.362946,204.824951 110.043762,197.945587 92.176422,189.101837 89.692047,195.583435 85.103088,200.242981 79.108246,202.371002 72.620056,201.643616 66.626404,198.171509 62.039703,192.483307 59.558289,185.444977 59.559875,178.128021" />
				<polygon fill="#59FECE" stroke="none" fill-opacity="1" points="281.354950,217.955200 286.969391,213.361267 293.420929,211.219788 299.727142,211.856781 304.928253,215.175262 308.232330,220.669983 309.136139,227.504517 307.502411,234.638306 346.967438,289.259644 382.755768,153.858124 363.542084,115.758423 357.540680,113.843475 268.729401,117.474670 261.573517,119.927582 221.579620,160.448090 277.432159,224.302185" />
				<polygon fill="#59FECE" stroke="none" fill-opacity="1" points="62.044281,171.646393 66.633240,166.986877 72.628052,164.858826 79.116241,165.586243 85.109894,169.058319 89.696625,174.746552 92.178070,181.784912 92.176422,189.101837 110.043762,197.945587 113.994720,192.583466 119.614441,189.554932 126.047302,189.321045 132.313965,191.917450 137.460419,196.948822 140.703064,203.649200 141.548401,210.998474 139.867584,217.877808 168.550903,282.727966 199.721344,164.797607 130.598999,157.229156 127.353485,163.202118 122.205139,167.079315 115.937653,168.270447 109.505219,166.594238 103.887085,162.305817 99.938629,156.058075 98.260925,148.802216 99.109344,141.642792 41.901123,77.913696 10.730713,195.844055 59.559875,178.128021" />
				<polygon fill="#59FECE" stroke="none" fill-opacity="1" points="41.901123,77.913696 99.109344,141.642792 102.354797,135.669800 107.503143,131.792633 113.770691,130.601410 120.203125,132.277679 125.821228,136.566101 129.769684,142.813843 131.447418,150.069763 130.598999,157.229156 199.721344,164.797607 200.452057,155.193176 182.434570,100.243988 176.699005,94.584717 91.476105,47.667419 84.586029,46.375977 45.788239,70.046967" />
				<polygon fill="#59FECE" stroke="none" fill-opacity="1" points="268.285187,28.436676 251.144806,45.200806 250.762421,42.287781 247.466827,39.686310 241.866241,37.323975 235.037323,35.090149 227.894562,33.522247 221.554535,32.714081 216.625641,33.312561 214.195404,35.486115 194.159515,10.000000 202.316315,10.599854 260.327728,25.028534" />
				<polygon fill="#59FECE" stroke="none" fill-opacity="1" points="99.151703,31.618500 204.562775,59.411438 204.945160,62.324493 208.081879,65.533508 213.495514,68.549988 220.361786,70.914764 227.635468,72.267639 234.209076,72.402802 239.082001,71.299713 241.512238,69.126160 263.168427,100.515076 255.011627,99.915192 197.000244,85.486511 189.042755,82.078400 103.819855,35.161072" />
			</g>
			<!--Layer: Cube_001_Lines-->
			<g id="Cube_001_Lines" />
		</g>
	</g>
</svg>
