<?xml version="1.0" encoding="UTF-8"?>
<!-- Generator: Blender, SVG Export for Grease Pencil - v1.0 -->
<!DOCTYPE svg PUBLIC "-//W3C//DTD SVG 1.1//EN" "http://www.w3.org/Graphics/SVG/1.1/DTD/svg11.dtd">
<svg version="1.0" x="0px" y="0px" xmlns="http://www.w3.org/2000/svg" width="670px" height="719px" viewBox="0 0 670 719">
	<g id="blender_frame_1">
		<g id="blender_object_GPencil">
			<!--Layer: snowflake_Fills-->
			<g id="snowflake_Fills">
				<polygon fill="#59FECE" stroke="none" fill-opacity="1" points="351.718567,87.714233 332.290039,128.514282 332.290039,184.857147 390.575684,145.352417 390.575684,183.561890 332.290039,227.600006 332.290039,326.297119 417.561462,276.831512 426.556763,204.335541 459.647095,185.230804 454.577881,255.460083 503.372253,227.288666 528.991760,190.063019 615.722900,184.857147 567.848877,257.365570 522.800781,260.939880 474.006409,289.111328 537.361328,319.835876 504.270935,338.940613 436.989990,310.482788 351.515869,359.831329 436.989990,408.945770 504.270935,380.487915 537.361328,399.592682 474.006409,430.317200 522.800781,458.488647 567.848877,462.063019 615.722839,534.571472 528.991760,529.365540 503.372192,492.139923 454.577881,463.968506 459.647095,534.197754 426.556702,515.092957 417.561462,442.597046 332.087280,393.248474 332.290039,491.828552 390.575684,535.866638 390.575684,574.076111 332.289978,534.571411 332.289978,590.914246 351.718567,631.714233 312.861389,709.428528 274.004272,631.714233 293.432861,590.914246 293.432861,534.571411 235.147110,574.076111 235.147110,535.866638 293.432861,491.828552 293.432861,393.131409 208.161392,442.597015 199.166122,515.092957 166.075729,534.197693 171.145004,463.968445 122.350632,492.139893 96.731125,529.365479 10.000000,534.571350 57.873978,462.062927 102.922104,458.488586 151.716415,430.317169 88.361465,399.592621 121.451920,380.487885 188.732864,408.945740 274.207031,359.597198 188.732864,310.482758 121.451920,338.940552 88.361496,319.835815 151.716476,289.111328 102.922134,260.939850 57.874008,257.365479 10.000061,184.857086 96.731155,190.062927 122.350693,227.288574 171.145035,255.460052 166.075790,185.230774 199.166214,204.335510 208.161423,276.831482 293.534241,326.238586 293.432861,227.600006 235.147171,183.561890 235.147171,145.352417 293.432861,184.857147 293.432861,128.514282 274.004272,87.714233 312.861450,10.000000" />
			</g>
			<!--Layer: snowflake_Lines-->
			<g id="snowflake_Lines" />
		</g>
	</g>
</svg>
