<?xml version="1.0" encoding="UTF-8"?>
<!-- Generator: Blender, SVG Export for Grease Pencil - v1.0 -->
<!DOCTYPE svg PUBLIC "-//W3C//DTD SVG 1.1//EN" "http://www.w3.org/Graphics/SVG/1.1/DTD/svg11.dtd">
<svg version="1.0" x="0px" y="0px" xmlns="http://www.w3.org/2000/svg" width="504px" height="504px" viewBox="0 0 504 504">
	<g id="blender_frame_1">
		<g id="blender_object_sword.svg">
			<!--Layer: blender_frame_1-->
			<g id="blender_frame_1">
				<polygon fill="#00FDC8" stroke="none" fill-opacity="1" points="445.286621,10.586243 450.751282,10.521118 456.216187,10.455994 461.680725,10.390808 467.145691,10.325684 472.610291,10.260559 478.075195,10.195435 483.539856,10.130310 489.004700,10.065125 494.469360,10.000000 494.404236,15.464783 494.339111,20.929504 494.273926,26.394226 494.208740,31.858948 494.143677,37.323669 494.078491,42.788452 494.013367,48.253174 493.948242,53.717896 493.883057,59.182678 493.111023,63.918304 492.338806,68.653961 491.566650,73.389618 490.794678,78.125275 490.022400,82.860901 489.250427,87.596527 488.478210,92.332184 487.706055,97.067841 486.933960,101.803497 485.737366,106.475037 484.540710,111.146637 483.344116,115.818207 482.147583,120.489777 480.950989,125.161316 479.754333,129.832916 478.557739,134.504486 477.361084,139.176056 476.164490,143.847595 474.357849,148.276459 472.550964,152.705292 470.744263,157.134125 468.937622,161.563019 467.130920,165.991852 465.324097,170.420685 463.517334,174.849518 461.710632,179.278351 459.903870,183.707214 457.226440,187.633606 454.548828,191.560028 451.871216,195.486420 449.193848,199.412872 446.516235,203.339233 443.838684,207.265656 441.161133,211.192017 438.483704,215.118439 435.806091,219.044861 432.313721,222.306091 428.821228,225.567291 425.328735,228.828491 421.836365,232.089722 418.343994,235.350891 414.851440,238.612122 411.359070,241.873383 407.866638,245.134552 404.374268,248.395752 400.348022,251.049286 396.321777,253.702698 392.295532,256.356171 388.269348,259.009705 384.243042,261.663177 380.216797,264.316650 376.190613,266.970154 372.164368,269.623566 368.138123,272.277100 359.671021,276.867340 351.203857,281.457550 342.736755,286.047760 334.269714,290.638062 325.802612,295.228271 317.335388,299.818481 308.868286,304.408722 300.401245,308.998932 291.934143,313.589172 287.780151,315.990784 283.626221,318.392334 279.472290,320.793823 275.318359,323.195465 271.164307,325.597015 267.010376,327.998596 262.856445,330.400146 258.702515,332.801758 254.548584,335.203308 250.298553,337.596802 246.048431,339.990234 241.798309,342.383667 237.548279,344.777222 233.298157,347.170654 229.048065,349.564148 224.798004,351.957642 220.547913,354.351044 216.297852,356.744507 212.354218,359.399200 208.410553,362.053894 204.466888,364.708557 200.523315,367.363281 196.579620,370.017944 192.636017,372.672638 188.692413,375.327362 184.748749,377.982025 180.805145,380.636719 180.288818,381.374878 179.772522,382.113098 179.256195,382.851196 178.739929,383.589478 178.223602,384.327637 177.707306,385.065796 177.191010,385.803955 176.674713,386.542145 176.158356,387.280304 176.178040,388.035553 176.197693,388.790771 176.217377,389.545868 176.237061,390.301208 176.256714,391.056335 176.276428,391.811523 176.296082,392.566711 176.315765,393.321991 176.335419,394.077148 176.939301,394.715942 177.543213,395.354614 178.147095,395.993378 178.751038,396.632172 179.354919,397.270935 179.958832,397.909668 180.562775,398.548431 181.166656,399.187134 181.770599,399.825928 187.023621,403.015564 192.276642,406.205139 197.529663,409.394592 202.782715,412.584167 208.035736,415.773743 213.288788,418.963379 218.541809,422.152893 223.794830,425.342529 229.047852,428.532166 229.682281,429.207764 230.316772,429.883423 230.951202,430.558960 231.585632,431.234558 232.220093,431.910217 232.854523,432.585876 233.488953,433.261475 234.123444,433.937073 234.757874,434.612671 234.860962,435.468689 234.964050,436.324646 235.067139,437.180542 235.170227,438.036499 235.273254,438.892517 235.376373,439.748413 235.479431,440.604370 235.582520,441.460266 235.685608,442.316345 235.229767,443.123291 234.773865,443.930237 234.317902,444.737122 233.862061,445.544128 233.406128,446.351013 232.950226,447.157898 232.494324,447.964844 232.038391,448.771790 231.582520,449.578735 230.072845,451.088440 228.563202,452.598206 227.053497,454.107727 225.543854,455.617493 224.034119,457.127136 222.524475,458.636841 221.014771,460.146484 219.505096,461.656128 217.995422,463.165894 217.106049,463.702148 216.216736,464.238464 215.327332,464.774719 214.437988,465.311096 213.548645,465.847290 212.659271,466.383667 211.769897,466.919983 210.880554,467.456299 209.991150,467.992554 208.910004,468.109131 207.828857,468.225708 206.747711,468.342224 205.666595,468.458862 204.585419,468.575317 203.504303,468.691956 202.423126,468.808411 201.341980,468.925049 200.260834,469.041626 199.277588,468.707214 198.294373,468.372864 197.311157,468.038330 196.327911,467.704041 195.344666,467.369568 194.361420,467.035156 193.378204,466.700745 192.394989,466.366333 191.411743,466.031921 185.594177,462.298157 179.776581,458.564392 173.958984,454.830505 168.141449,451.096741 162.323853,447.362915 156.506256,443.629089 150.688660,439.895203 144.871094,436.161560 139.053497,432.427612 138.039185,432.055542 137.024841,431.683411 136.010468,431.311279 134.996124,430.939270 133.981812,430.567078 132.967468,430.194946 131.953094,429.822937 130.938782,429.450745 129.924438,429.078674 128.758362,429.092224 127.592255,429.105774 126.426147,429.119263 125.260071,429.132935 124.093964,429.146423 122.927917,429.159973 121.761810,429.173462 120.595703,429.187073 119.429626,429.200562 118.424194,429.596252 117.418762,429.991882 116.413300,430.387268 115.407959,430.782959 114.402527,431.178528 113.397095,431.574158 112.391663,431.969666 111.386261,432.365234 110.380798,432.760803 109.138672,433.620422 107.896545,434.479919 106.654419,435.339417 105.412292,436.199036 104.170135,437.058533 102.928009,437.918091 101.685883,438.777588 100.443756,439.637146 99.201599,440.496643 98.119659,441.448608 97.037750,442.400696 95.955780,443.352417 94.873871,444.304504 93.791901,445.256470 92.710022,446.208435 91.628082,447.160339 90.546143,448.112366 89.464233,449.064331 88.703430,450.081421 87.942719,451.098450 87.181915,452.115417 86.421204,453.132507 85.660400,454.149536 84.899658,455.166626 84.138885,456.183594 83.378143,457.200684 82.617371,458.217712 82.175323,459.354553 81.733276,460.491455 81.291229,461.628235 80.849213,462.765137 80.407166,463.901917 79.965118,465.038818 79.523071,466.175659 79.081024,467.312500 78.638947,468.449402 78.292755,469.668640 77.946503,470.887878 77.600311,472.107056 77.254059,473.326355 76.907837,474.545593 76.561615,475.764771 76.215424,476.984131 75.869171,478.203247 75.522949,479.422546 74.970551,480.438538 74.418152,481.454529 73.865692,482.470459 73.313293,483.486511 72.760895,484.502502 72.208466,485.518433 71.656067,486.534485 71.103638,487.550415 70.551239,488.566345 69.636047,489.140259 68.720856,489.714050 67.805634,490.287964 66.890472,490.861877 65.975281,491.435669 65.060089,492.009583 64.144897,492.583374 63.229706,493.157288 62.314514,493.731079 60.981262,493.813171 59.648041,493.895142 58.314758,493.977173 56.981506,494.059265 55.648254,494.141296 54.315002,494.223328 52.981750,494.305298 51.648499,494.387329 50.315277,494.469360 48.774445,493.815857 47.233643,493.162354 45.692841,492.508789 44.152008,491.855286 42.611206,491.201782 41.070374,490.548218 39.529572,489.894714 37.988770,489.241150 36.447968,488.587646 35.099243,487.651184 33.750519,486.714783 32.401825,485.778259 31.053131,484.841980 29.704437,483.905518 28.355774,482.969116 27.007050,482.032654 25.658386,481.096313 24.309662,480.159790 23.373230,478.811157 22.436798,477.462341 21.500366,476.113647 20.563965,474.764954 19.627502,473.416260 18.691071,472.067566 17.754669,470.718872 16.818237,469.370178 15.881805,468.021423 15.228271,466.480652 14.574738,464.939819 13.921234,463.398987 13.267670,461.858276 12.614136,460.317444 11.960602,458.776611 11.307098,457.235779 10.653534,455.695007 10.000000,454.154175 10.082031,452.820862 10.164093,451.487732 10.246124,450.154297 10.328156,448.821167 10.410187,447.487854 10.492218,446.154602 10.574280,444.821289 10.656281,443.488037 10.738312,442.154785 11.312195,441.239624 11.886078,440.324524 12.459900,439.409119 13.033783,438.494202 13.607635,437.578979 14.181519,436.663757 14.755341,435.748535 15.329254,434.833313 15.903076,433.918213 16.919067,433.365784 17.935028,432.813416 18.950989,432.260925 19.967010,431.708557 20.982971,431.156128 21.998932,430.603699 23.014923,430.051331 24.030853,429.498962 25.046844,428.946472 26.266113,428.600281 27.485352,428.254089 28.704590,427.907715 29.923859,427.561584 31.143127,427.215332 32.362335,426.869141 33.581604,426.522827 34.800873,426.176697 36.020081,425.830383 37.156921,425.388428 38.293823,424.946411 39.430634,424.504211 40.567505,424.062378 41.704315,423.620239 42.841187,423.178162 43.978027,422.736145 45.114868,422.294128 46.251740,421.852112 47.268799,421.091309 48.285828,420.330505 49.302826,419.569702 50.319885,418.809021 51.336945,418.048157 52.353943,417.287476 53.370972,416.526672 54.388031,415.765930 55.405060,415.005127 56.357056,413.923218 57.309021,412.841309 58.260956,411.759338 59.212921,410.677429 60.164886,409.595520 61.116852,408.513611 62.068817,407.431702 63.020782,406.349731 63.972748,405.267883 64.832245,404.025726 65.691833,402.783569 66.551361,401.541443 67.410889,400.299316 68.270416,399.057190 69.129974,397.815033 69.989471,396.572876 70.848999,395.330750 71.708527,394.088593 72.104126,393.083191 72.499725,392.077820 72.895294,391.072327 73.290863,390.066895 73.686462,389.061523 74.082001,388.056061 74.477631,387.050629 74.873169,386.045227 75.268799,385.039795 75.282318,383.873657 75.295868,382.707611 75.309387,381.541443 75.322968,380.375458 75.336517,379.209351 75.350037,378.043243 75.363617,376.877136 75.377167,375.711060 75.390717,374.544983 75.018585,373.530640 74.646515,372.516296 74.274384,371.501953 73.902313,370.487671 73.530182,369.473267 73.158051,368.458923 72.785980,367.444641 72.413849,366.430237 72.041748,365.415894 68.307922,359.598389 64.574127,353.780762 60.840332,347.963135 57.106476,342.145630 53.372681,336.328003 49.638885,330.510437 45.905060,324.692871 42.171265,318.875244 38.437439,313.057709 38.102997,312.074463 37.768646,311.091217 37.434204,310.107910 37.099854,309.124756 36.765411,308.141479 36.430969,307.158234 36.096619,306.175018 35.762177,305.191772 35.427826,304.208527 35.544373,303.127411 35.660889,302.046234 35.777466,300.965057 35.894043,299.883972 36.010590,298.802765 36.127106,297.721649 36.243683,296.640503 36.360260,295.559296 36.476837,294.478180 37.013123,293.588806 37.549438,292.699463 38.085724,291.810089 38.622040,290.920746 39.158295,290.031342 39.694641,289.141968 40.230927,288.252594 40.767212,287.363281 41.303558,286.473877 42.813232,284.964203 44.322906,283.454559 45.832581,281.944855 47.342255,280.435272 48.851929,278.925568 50.361633,277.415863 51.871277,275.906189 53.380981,274.396515 54.890656,272.886871 55.697601,272.430969 56.504547,271.975098 57.311493,271.519135 58.118439,271.063293 58.925354,270.607361 59.732269,270.151459 60.539215,269.695557 61.346161,269.239655 62.153107,268.783752 63.009064,268.886841 63.865021,268.989960 64.720947,269.092957 65.576904,269.196106 66.432861,269.299164 67.288849,269.402222 68.144775,269.505280 69.000763,269.608429 69.856689,269.711487 70.532318,270.345947 71.207947,270.980438 71.883545,271.614807 72.559204,272.249298 73.234802,272.883728 73.910431,273.518158 74.586029,274.152649 75.261658,274.787109 75.937256,275.421539 79.126831,280.674591 82.316406,285.927582 85.506012,291.180634 88.695618,296.433685 91.885193,301.686676 95.074768,306.939728 98.264343,312.192749 101.453949,317.445770 104.643555,322.698792 105.282288,323.302673 105.921021,323.906616 106.559753,324.510498 107.198517,325.114441 107.837280,325.718323 108.476013,326.322266 109.114777,326.926147 109.753510,327.530090 110.392273,328.133972 111.147491,328.153687 111.902649,328.173401 112.657867,328.192993 113.413116,328.212708 114.168335,328.232361 114.923492,328.252075 115.678711,328.271729 116.433899,328.291382 117.189148,328.311066 117.927307,327.794739 118.665497,327.278503 119.403656,326.762054 120.141815,326.245819 120.879974,325.729492 121.618134,325.213135 122.356293,324.696869 123.094513,324.180542 123.832703,323.664215 126.487366,319.720581 129.142029,315.776978 131.796722,311.833252 134.451447,307.889709 137.106079,303.946045 139.760742,300.002411 142.415436,296.058777 145.070129,292.115112 147.724792,288.171509 150.118317,283.921417 152.511749,279.671356 154.905212,275.421234 157.298737,271.171234 159.692169,266.921082 162.085663,262.671051 164.479126,258.420929 166.872589,254.170837 169.266113,249.920776 171.667633,245.766846 174.069214,241.612915 176.470764,237.458923 178.872375,233.305054 181.273926,229.151062 183.675476,224.997131 186.077087,220.843201 188.478607,216.689270 190.880188,212.535309 195.470459,204.068207 200.060638,195.601074 204.650879,187.133911 209.241150,178.666870 213.831360,170.199707 218.421570,161.732544 223.011810,153.265472 227.602051,144.798340 232.192291,136.331238 234.845825,132.304993 237.499268,128.278748 240.152710,124.252502 242.806213,120.226288 245.459686,116.200043 248.113129,112.173798 250.766602,108.147614 253.420135,104.121368 256.073547,100.095123 259.334778,96.602692 262.596008,93.110260 265.857239,89.617798 269.118530,86.125397 272.379700,82.632996 275.640869,79.140503 278.902100,75.648102 282.163330,72.155701 285.424561,68.663239 289.350952,65.985718 293.277283,63.308197 297.203735,60.630676 301.130188,57.953186 305.056519,55.275574 308.982971,52.598083 312.909424,49.920532 316.835693,47.243042 320.762146,44.565491 325.191040,42.758789 329.619873,40.952026 334.048706,39.145264 338.477600,37.338562 342.906372,35.531799 347.335205,33.725037 351.764099,31.918274 356.192871,30.111572 360.621765,28.304810 365.293335,27.108215 369.964844,25.911682 374.636414,24.715027 379.308044,23.518433 383.979614,22.321899 388.651184,21.125244 393.322693,19.928711 397.994263,18.732117 402.665833,17.535522 407.401489,16.763367 412.137146,15.991211 416.872742,15.219055 421.608521,14.446960 426.344055,13.674805 431.079712,12.902649 435.815308,12.130493 440.550964,11.358398 445.286621,10.586243" />
			</g>
		</g>
	</g>
</svg>
